<?xml version="1.0" encoding="UTF-8"?>
<!DOCTYPE svg PUBLIC "-//W3C//DTD SVG 1.1//EN" "http://www.w3.org/Graphics/SVG/1.1/DTD/svg11.dtd">
<svg xmlns="http://www.w3.org/2000/svg" version="1.1" width="512px" height="512px" style="shape-rendering:geometricPrecision; text-rendering:geometricPrecision; image-rendering:optimizeQuality; fill-rule:evenodd; clip-rule:evenodd" xmlns:xlink="http://www.w3.org/1999/xlink">
<g><path style="opacity:0.947" fill="#000000" d="M 294.5,52.5 C 307.361,52.568 311.527,58.568 307,70.5C 284.833,92.6667 262.667,114.833 240.5,137C 310.5,137.333 380.5,137.667 450.5,138C 458.879,142.091 460.712,148.258 456,156.5C 455.097,157.701 453.931,158.535 452.5,159C 381.833,159.333 311.167,159.667 240.5,160C 262.333,181.833 284.167,203.667 306,225.5C 310.758,231.509 310.591,237.343 305.5,243C 299.948,246.409 294.615,246.076 289.5,242C 261.333,213.833 233.167,185.667 205,157.5C 200.924,152.385 200.591,147.052 204,141.5C 233.757,111.242 263.923,81.5752 294.5,52.5 Z"/></g>
<g><path style="opacity:0.947" fill="#000000" d="M 210.5,265.5 C 214.599,265.367 218.266,266.533 221.5,269C 249.667,297.167 277.833,325.333 306,353.5C 310.076,358.615 310.409,363.948 307,369.5C 278.167,398.333 249.333,427.167 220.5,456C 208.453,461.399 202.286,457.566 202,444.5C 202.667,443.167 203.333,441.833 204,440.5C 226.167,418.333 248.333,396.167 270.5,374C 200.5,373.667 130.5,373.333 60.5,373C 52.1211,368.909 50.2878,362.742 55,354.5C 55.9025,353.299 57.0692,352.465 58.5,352C 129.167,351.667 199.833,351.333 270.5,351C 248.667,329.167 226.833,307.333 205,285.5C 199.442,276.686 201.275,270.019 210.5,265.5 Z"/></g>
</svg>
